# xmcd
#
# Track frame offsets:
# 150
# 18178
# 37120
# 57372
# 68996
# 86282
# 103516
# 119928
# 134345
# 152766
# 166075
#
# Disc length: 2432 seconds
#
#
# Revision: 0
# Processed by: cddbd v1.5.1PL0 Copyright (c) Steve Scherf et al.
# Submitted via: FreeRIP 2.70 
#
DISCID=90097e0b
DTITLE=Marcello and Gabriel - Someday  "Está no ar"
DYEAR=2003
DGENRE=Pop
TTITLE0=Meu destino vai te encontrar
TTITLE1=Someday " Está no ar"
TTITLE2=Lembranças deste amor
TTITLE3=Minha vizinha
TTITLE4=Chuva fina
TTITLE5=Livro da vida
TTITLE6=Eu vivo buscando este amor
TTITLE7=Na hora da loucura
TTITLE8=Vamos lutar pelas crianças
TTITLE9=Lenha na fogueira
TTITLE10=Vem e vai
EXTD=
EXTT0=
EXTT1=
EXTT2=
EXTT3=
EXTT4=
EXTT5=
EXTT6=
EXTT7=
EXTT8=
EXTT9=
EXTT10=
PLAYORDER=
